<svg xmlns="http://www.w3.org/2000/svg" viewBox="0 0 1080 420"><path d="M175.2 216.2v70.1c0 2.9-2.4 5.3-5.3 5.3h-15.6c-2.9 0-5.3 2.4-5.3 5.3v62.2c0 2.9-2.4 5.3-5.3 5.3H63.2c-2.9 0-5.3-2.4-5.3-5.3V169.9c0-37.7 10.3-66.9 30.8-87.8 20.6-20.8 49.4-31.3 86.6-31.3 35.9 0 62.4 9.5 79.6 28.4 17.2 18.9 25.8 48.1 25.8 87.5v192.4c0 2.9-2.4 5.3-5.3 5.3H195c-2.9 0-5.3-2.4-5.3-5.3V172.8c0-12-1.4-20.2-4.3-24.9-2.8-4.6-7.9-6.9-15.2-6.9-14.2 0-21.3 10.6-21.3 31.8v32.8c0 2.9 2.4 5.3 5.3 5.3h15.6c3 0 5.4 2.4 5.4 5.3zM452.3 143.3v76.8c0 4.3-3.2 6.3-7.2 4.9-3.1-1.1-6-1.6-8.7-1.6-15.2 0-22.9 11.7-22.9 35v100.7c0 2.9-2.4 5.3-5.3 5.3H335c-2.9 0-5.3-2.4-5.3-5.3V242.3c0-32.3 8.8-58 26.5-77.2 17.6-19.2 41.2-28.8 70.6-28.8 5.6 0 12.6.6 21 1.8 2.4.3 4.5 2.7 4.5 5.2zM617.6 261.5l73.6-2.8c3.4-.1 5.9 2.6 5.5 6-3.4 29.5-15.2 53.9-35.5 73.4-21.7 20.8-48.1 31.2-79.1 31.2-32.9 0-60.6-11.4-83.3-34.3-22.6-22.9-34-50.9-34-84.1 0-31.5 11.4-58.5 34.3-80.9 22.9-22.4 50.3-33.6 82.3-33.6 27.9 0 52.6 8.8 74 26.5 19.7 16.3 32.5 36.6 38.5 61.1.9 3.5-1.4 6.5-5 6.6l-76.1 2.8c-1.4.1-3.2-.8-4.1-1.9-7.1-8.2-15.8-12.4-26.2-12.4-9.6 0-17.4 3.1-23.5 9.4-6.1 6.3-9.2 14.2-9.2 23.8 0 9.7 3.3 17.9 9.8 24.4 6.5 6.6 14.6 9.9 24.3 9.9 13.3 0 23-7.3 29.1-21.8.7-1.8 2.8-3.3 4.6-3.3zM817.7 63.8v78.4c0 5.1 3.6 7.1 8 4.5 11.5-6.8 23-10.2 34.6-10.2 21.5 0 38.6 7.8 51.2 23.3 12.6 15.5 18.9 36.5 18.9 63v136.4c0 2.9-2.4 5.3-5.3 5.3h-73.2c-2.9 0-5.3-2.4-5.3-5.3V246.3c0-9.6-1-16-3-19.3-2-3.3-5.9-4.9-11.8-4.9-9.4 0-14.1 6.9-14.1 20.8v116.2c0 2.9-2.4 5.3-5.3 5.3h-73.2c-2.9 0-5.3-2.4-5.3-5.3V63.8c0-2.9 2.4-5.3 5.3-5.3h73.2c2.9 0 5.3 2.4 5.3 5.3zM974.3 63.9c0-2.2 1.8-3.9 3.9-3.9h28.6c4 0 7.3 1.2 9.9 3.7 2.6 2.4 3.8 5.6 3.8 9.5 0 3.2-1 5.8-3 8-1.5 1.6-1.5 3.9 0 5.5.6.7 1.1 1.3 1.5 2 1 1.7 1.5 3.9 1.5 6.4 0 4.1-1.3 7.2-3.8 9.3-2.6 2.2-6.2 3.2-11 3.2h-27.5c-2.2 0-3.9-1.8-3.9-3.9v-5.6c0-2.2 1.8-3.9 3.9-3.9h25.4c1.5 0 2.4-.1 2.9-.3.5-.2.7-.7.7-1.4 0-1.3-1.1-2-3.4-2h-25.7c-2.2 0-3.9-1.8-3.9-3.9V81c0-2.2 1.8-3.9 3.9-3.9h25.4c1.4 0 2.4-.1 2.9-.4.5-.2.7-.7.7-1.4 0-1.3-1.2-2-3.6-2h-25.4c-2.2 0-3.9-1.8-3.9-3.9v-5.5zM1006.8 118.8v4.5c0 2.2-1.8 3.9-3.9 3.9h-14.7c-1.9 0-2.8.8-2.8 2.3 0 1.5.9 2.3 2.8 2.3h14.7c2.2 0 3.9 1.8 3.9 3.9v4.5c0 2.2-1.8 3.9-3.9 3.9h-14.5c-4.3 0-7.9-1.4-10.8-4.3s-4.4-6.3-4.4-10.4c0-4.7 1.7-8.5 5.1-11.3 2.7-2.2 6.4-3.3 11.1-3.3h13.5c2.1.1 3.9 1.9 3.9 4zM1007.9 165.9c0 2.1-1.8 3.7-3.9 3.7h-9.7c.5-.9.7-1.6.7-2.3 0-2.2-1.7-3.4-5.2-3.4h-11.7c-2.2 0-3.9-1.8-3.9-3.9v-4.5c0-2.2 1.8-3.9 3.9-3.9h14.1c4.8 0 8.6 1.3 11.4 3.9 2.9 2.5 4.3 6 4.3 10.4 0-.1 0-.1 0 0zM986.6 191.5h-12.8c-.2-1-.3-1.9-.3-2.8 0-5 1.6-9.1 4.9-12.4 3.3-3.3 7.4-5 12.3-5 4.8 0 8.8 1.7 12.2 5s5 7.4 5 12.2c0 5.3-1.6 9.5-4.7 12.6-3.1 3.1-7.4 4.6-12.8 4.6h-12.2c-2.2 0-3.9-1.8-3.9-3.9v-4.5c0-2.2 1.8-3.9 3.9-3.9h11.4c1.7 0 3.1-.4 4.2-1.3 1-.8 1.6-2 1.6-3.4 0-1.3-.5-2.4-1.4-3.4-.9-.9-2.1-1.4-3.4-1.4-1.4 0-2.5.4-3.4 1.3-.9.9-1.3 2-1.3 3.3-.1 1.1.2 2.1.7 3zM1003.3 225.4h-25.1c-2.2 0-3.9-1.8-3.9-3.9V217c0-2.2 1.8-3.9 3.9-3.9h25.1c2.2 0 3.9 1.8 3.9 3.9v4.5c0 2.1-1.7 3.9-3.9 3.9zm18.6-6.1c0 1.7-.6 3.1-1.8 4.3-1.2 1.2-2.6 1.8-4.2 1.8-1.7 0-3.1-.6-4.2-1.7-1.1-1.2-1.7-2.6-1.7-4.4s.6-3.3 1.7-4.4c1.1-1.2 2.5-1.7 4.2-1.7 1.6 0 3 .6 4.2 1.8 1.2 1.1 1.8 2.6 1.8 4.3zM1019.4 253.5v5.6c0 2.2-1.8 3.9-3.9 3.9h-22.9c-2.1 0-3.5.3-4.2 1-.7.7-1 2-1 4v.7h-13.1v-3.6c0-4.9 1.4-8.7 4.3-11.4 2.9-2.7 6.8-4.1 11.9-4.1h25c2.1 0 3.9 1.8 3.9 3.9zM986.6 290.6h-12.8c-.2-1-.3-1.9-.3-2.8 0-5 1.6-9.1 4.9-12.4 3.3-3.3 7.4-5 12.3-5 4.8 0 8.8 1.7 12.2 5s5 7.4 5 12.2c0 5.3-1.6 9.5-4.7 12.6-3.1 3.1-7.4 4.6-12.8 4.6h-12.2c-2.2 0-3.9-1.8-3.9-3.9v-4.5c0-2.2 1.8-3.9 3.9-3.9h11.4c1.7 0 3.1-.4 4.2-1.3 1-.8 1.6-2 1.6-3.4 0-1.3-.5-2.4-1.4-3.4s-2.1-1.4-3.4-1.4c-1.4 0-2.5.4-3.4 1.3s-1.3 2-1.3 3.3c-.1 1.1.2 2.1.7 3zM1019.4 319.8c0 2.2-1.8 3.9-3.9 3.9h-23.1c-4.4 0-6.6 1.6-6.6 4.7 0 1.3.5 2.5 1.4 3.4.9.9 2 1.4 3.3 1.4 1.3 0 2.5-.4 3.4-1.3.9-.9 1.4-2 1.4-3.2 0-.9-.4-1.9-1.2-3.1h13.6c.1 1.5.2 2.6.2 3.3 0 6.6-3.3 11.8-10 15.7-.3.2-.8.4-1.2.5-7.5 1.8-13.6.4-18.2-4.3-3.3-3.4-5-7.5-5-12.4 0-2.5.5-4.9 1.6-7.2s2.5-4.3 4.4-5.8c3.2-2.6 7.3-4 12.3-4h23.6c2.2 0 3.9 1.8 3.9 3.9v4.5zM988.8 354.2c.7 3.2.1 5.9-2.1 8-2.1 2.1-4.8 2.8-8 2-.4-.1-1-.3-1.3-.6-2.7-1.8-4.1-4.1-4.1-7.1 0-2.3.7-4.1 2.2-5.6 1.5-1.5 3.3-2.2 5.6-2.2 3 0 5.3 1.4 7.1 4.1.2.4.5 1 .6 1.4z"/></svg>